<svg xmlns="http://www.w3.org/2000/svg" width="300" height="75" viewBox="0 0 400 100"><style>.a{fill:#f15d2f;}.b{fill:#1f1a17;}.c{fill:#a2a2a2;}</style><path d="M191.3 83.3v14.4h-1.6V83.3H191.3z" class="a"/><path d="M199.1 84.8v12.9h-1.6V84.8h-4.7v-1.5h11v1.5H199.1z" class="a"/><path d="M218.3 90.2h-1.5c0-0.5-0.1-0.9-0.2-1.1 -0.1-0.2-0.5-0.4-1-0.4 -0.3 0-0.7 0-1.4 0 -0.7 0-1.2 0-1.5 0.1 -0.3 0-0.6 0.1-0.7 0.3 -0.2 0.2-0.4 0.6-0.4 1.2 0 0.6 0.1 1 0.2 1.2 0.1 0.3 0.4 0.4 0.9 0.5 0.1 0 0.6 0 1.6 0.1 1.3 0.1 2.1 0.1 2.3 0.1 0.8 0.1 1.4 0.5 1.7 1.1 0.2 0.4 0.3 1 0.3 1.7 0 1.1-0.3 1.8-0.8 2.3 -0.4 0.3-0.9 0.5-1.5 0.6 -0.6 0.1-1.3 0.1-2 0.1 -0.9 0-1.6 0-2.1-0.2s-0.9-0.3-1.3-0.5c-0.6-0.4-0.8-1.1-0.8-2.1 0-0.2 0-0.4 0-0.6h1.5c0 0.2 0 0.4 0 0.5 0 0.3 0.1 0.6 0.2 0.8 0.1 0.3 0.2 0.4 0.4 0.5 0.3 0.2 1 0.3 2.1 0.3 1.3 0 2.1-0.1 2.4-0.4 0.3-0.2 0.5-0.7 0.5-1.4 0-0.6-0.1-1-0.3-1.3 -0.2-0.2-0.6-0.3-1.2-0.3 -1.9 0-3.1-0.1-3.9-0.3 -0.7-0.2-1.1-0.5-1.4-1 -0.2-0.4-0.3-0.9-0.3-1.6 0-1.1 0.2-1.8 0.7-2.2 0.4-0.3 1-0.5 1.6-0.6 0.6-0.1 1.2-0.1 1.8-0.1 0.8 0 1.5 0 2 0.1s0.9 0.3 1.2 0.5c0.5 0.3 0.8 1 0.8 1.9C218.3 90 218.3 90.1 218.3 90.2z" class="a"/><path d="M227.7 94.6h1.5c0 0.2 0 0.3 0 0.4 0 0.9-0.3 1.6-0.8 2 -0.3 0.3-0.8 0.5-1.4 0.6 -0.6 0.1-1.3 0.2-2.3 0.2 -1.8 0-3-0.3-3.6-1 -0.4-0.5-0.6-1.1-0.7-2 -0.1-0.7-0.1-1.4-0.1-2.1 0-1.1 0.1-1.9 0.2-2.5 0.1-0.6 0.3-1.1 0.5-1.5 0.4-0.6 0.9-0.9 1.7-1.1 0.6-0.1 1.3-0.2 2-0.2 1.4 0 2.4 0.1 2.9 0.4 0.9 0.4 1.4 1.5 1.5 3.1 0 0.4 0 1 0 1.9h-7.2c0 1.2 0.1 2.1 0.3 2.7 0.2 0.5 0.6 0.8 1.3 0.9 0.3 0.1 0.7 0.1 1.2 0.1 1 0 1.7-0.1 2.1-0.2 0.4-0.1 0.7-0.5 0.8-1C227.7 95.2 227.7 95 227.7 94.6zM227.7 91.7c0-1.1-0.1-1.8-0.2-2.1 -0.2-0.4-0.5-0.7-1.1-0.9 -0.3-0.1-0.8-0.1-1.5-0.1 -0.9 0-1.5 0.1-1.9 0.2 -0.6 0.2-0.9 0.8-1 1.8 0 0.3 0 0.6 0 1.1H227.7z" class="a"/><path d="M231.7 87.6h1.5l-0.1 1.2 0 0c0.3-0.5 0.7-0.9 1-1.1 0.5-0.2 1.1-0.4 1.9-0.4 0.9 0 1.6 0.2 2.1 0.7 0.5 0.4 0.7 1.2 0.7 2.1 0 0.2 0 0.4 0 0.7h-1.5c0-0.3 0-0.6 0-0.8 0-0.5-0.1-0.8-0.3-1 -0.3-0.3-0.7-0.5-1.4-0.5 -1.1 0-1.8 0.3-2.2 1 -0.2 0.4-0.3 1-0.3 2v6h-1.5V87.6z" class="a"/><path d="M248.3 87.6l-3.4 10.1h-2.1l-3.3-10.1h1.5l1.8 5.5 0.6 1.7 0.3 0.9 0.3 0.9h0l0.3-0.9 0.3-0.9 0.5-1.7 1.7-5.5H248.3z" class="a"/><path d="M251 83.3v1.7h-1.5v-1.7H251zM251 87.6v10.1h-1.5V87.6H251z" class="a"/><path d="M260.5 94h1.5c0 0.2 0 0.4 0 0.5 0 1.2-0.3 2.1-1 2.6 -0.3 0.2-0.8 0.4-1.3 0.5 -0.5 0.1-1.2 0.2-2.1 0.2 -1.7 0-2.9-0.3-3.5-1 -0.4-0.5-0.7-1.1-0.8-1.9 -0.1-0.7-0.1-1.5-0.1-2.3 0-1 0.1-1.8 0.1-2.3 0.1-0.6 0.3-1 0.5-1.4 0.6-0.9 1.8-1.4 3.6-1.4 1.4 0 2.5 0.2 3.1 0.5 0.7 0.4 1 1 1.1 2 0 0.2 0 0.5 0 0.9h-1.5c0-0.1 0-0.2 0-0.3 0-0.7-0.2-1.2-0.5-1.5 -0.2-0.2-0.5-0.3-0.8-0.4 -0.4-0.1-0.9-0.1-1.6-0.1 -1.2 0-1.9 0.3-2.2 0.7 -0.3 0.5-0.4 1.6-0.4 3.4 0 1.8 0.3 2.9 0.8 3.4 0.3 0.3 1.1 0.4 2.4 0.4 0.8 0 1.3-0.1 1.7-0.2 0.4-0.1 0.6-0.4 0.7-0.8C260.5 95.2 260.5 94.7 260.5 94z" class="a"/><path d="M271 94.6h1.5c0 0.2 0 0.3 0 0.4 0 0.9-0.3 1.6-0.8 2 -0.3 0.3-0.8 0.5-1.4 0.6 -0.6 0.1-1.3 0.2-2.3 0.2 -1.8 0-3-0.3-3.6-1 -0.4-0.5-0.6-1.1-0.7-2 -0.1-0.7-0.1-1.4-0.1-2.1 0-1.1 0.1-1.9 0.2-2.5s0.3-1.1 0.5-1.5c0.4-0.6 0.9-0.9 1.7-1.1 0.6-0.1 1.3-0.2 2-0.2 1.4 0 2.3 0.1 2.9 0.4 0.9 0.4 1.4 1.5 1.5 3.1 0 0.4 0 1 0 1.9h-7.2c0 1.2 0.1 2.1 0.3 2.7 0.2 0.5 0.6 0.8 1.3 0.9 0.3 0.1 0.7 0.1 1.2 0.1 1 0 1.7-0.1 2.1-0.2 0.4-0.1 0.7-0.5 0.8-1C271 95.2 271 95 271 94.6zM271 91.7c0-1.1-0.1-1.8-0.2-2.1 -0.2-0.4-0.5-0.7-1.1-0.9 -0.3-0.1-0.8-0.1-1.5-0.1 -0.9 0-1.5 0.1-1.9 0.2 -0.6 0.2-0.9 0.8-1 1.8 0 0.3 0 0.6 0 1.1H271z" class="a"/><path d="M282.7 90.2h-1.5c0-0.5-0.1-0.9-0.2-1.1 -0.1-0.2-0.5-0.4-1-0.4 -0.3 0-0.7 0-1.4 0 -0.7 0-1.2 0-1.5 0.1 -0.3 0-0.6 0.1-0.7 0.3 -0.2 0.2-0.4 0.6-0.4 1.2 0 0.6 0.1 1 0.2 1.2 0.1 0.3 0.4 0.4 0.9 0.5 0.1 0 0.6 0 1.6 0.1 1.3 0.1 2.1 0.1 2.3 0.1 0.8 0.1 1.4 0.5 1.7 1.1 0.2 0.4 0.3 1 0.3 1.7 0 1.1-0.3 1.8-0.8 2.3 -0.4 0.3-0.9 0.5-1.5 0.6 -0.6 0.1-1.3 0.1-2 0.1 -0.9 0-1.6 0-2.1-0.2 -0.5-0.1-0.9-0.3-1.3-0.5 -0.6-0.4-0.8-1.1-0.8-2.1 0-0.2 0-0.4 0-0.6h1.5c0 0.2 0 0.4 0 0.5 0 0.3 0.1 0.6 0.2 0.8 0.1 0.3 0.2 0.4 0.4 0.5 0.3 0.2 1 0.3 2.1 0.3 1.3 0 2.1-0.1 2.4-0.4 0.3-0.2 0.5-0.7 0.5-1.4 0-0.6-0.1-1-0.3-1.3 -0.2-0.2-0.6-0.3-1.2-0.3 -1.9 0-3.1-0.1-3.9-0.3 -0.7-0.2-1.1-0.5-1.4-1 -0.2-0.4-0.3-0.9-0.3-1.6 0-1.1 0.2-1.8 0.7-2.2 0.4-0.3 1-0.5 1.6-0.6 0.6-0.1 1.2-0.1 1.8-0.1 0.8 0 1.5 0 2 0.1s0.9 0.3 1.2 0.5c0.5 0.3 0.8 1 0.8 1.9C282.7 90 282.7 90.1 282.7 90.2z" class="a"/><path d="M300.3 91.3h1.6c0 0.6 0 0.9 0 1.1 0 0.8-0.1 1.5-0.2 2.1l2.5 2.1 -0.9 1.1 -2.1-1.8c-0.3 0.6-0.7 1.1-1.2 1.3 -0.5 0.3-1.1 0.5-1.7 0.5 -0.6 0.1-1.3 0.1-2.1 0.1 -1.6 0-2.7-0.1-3.4-0.2 -0.6-0.1-1.1-0.4-1.5-0.7 -0.4-0.3-0.6-0.8-0.8-1.3 -0.2-0.6-0.3-1.3-0.3-2.3 0-1.1 0.1-2 0.4-2.5 0.3-0.6 0.8-0.9 1.5-1.1 0.1 0 0.3-0.1 0.6-0.1 0.1 0 0.2 0 0.3-0.1 -0.5-0.4-0.8-0.7-1-1 -0.2-0.4-0.3-0.9-0.3-1.5 0-1.4 0.3-2.3 0.9-2.8 0.4-0.3 1-0.5 1.7-0.6 0.6-0.1 1.2-0.1 1.8-0.1 0.8 0 1.5 0.1 2 0.2 0.5 0.1 0.9 0.3 1.2 0.6 0.6 0.5 0.8 1.4 0.8 2.6 0 0.2 0 0.5 0 0.9h-1.6c0-0.3 0-0.4 0-0.5 0-0.6 0-1-0.1-1.3 0-0.3-0.1-0.5-0.3-0.6 -0.3-0.3-1-0.5-2.1-0.5 -0.7 0-1.2 0-1.6 0.1 -0.3 0.1-0.6 0.2-0.8 0.3 -0.3 0.2-0.4 0.7-0.4 1.3 0 0.6 0.1 1.1 0.3 1.4 0.1 0.2 0.4 0.5 0.9 0.8l5.4 4.5c0-0.3 0-0.6 0-0.9C300.3 92.1 300.3 91.8 300.3 91.3zM294.4 90.3c-0.7 0.2-1.2 0.3-1.6 0.5 -0.3 0.2-0.5 0.5-0.6 1 -0.1 0.4-0.1 0.9-0.1 1.5 0 1.5 0.2 2.4 0.7 2.8 0.3 0.2 0.9 0.4 1.6 0.4 0.5 0 1.1 0 1.7 0 1.2 0 2-0.1 2.5-0.2 0.7-0.2 1.2-0.6 1.4-1.3L294.4 90.3z" class="a"/><path d="M318.8 90.2h-1.5c0-0.5-0.1-0.9-0.2-1.1 -0.1-0.2-0.5-0.4-1-0.4 -0.3 0-0.7 0-1.4 0 -0.7 0-1.2 0-1.5 0.1 -0.3 0-0.6 0.1-0.7 0.3 -0.2 0.2-0.4 0.6-0.4 1.2 0 0.6 0.1 1 0.2 1.2 0.1 0.3 0.4 0.4 0.9 0.5 0.1 0 0.6 0 1.6 0.1 1.3 0.1 2.1 0.1 2.3 0.1 0.8 0.1 1.4 0.5 1.7 1.1 0.2 0.4 0.3 1 0.3 1.7 0 1.1-0.3 1.8-0.8 2.3 -0.4 0.3-0.9 0.5-1.5 0.6 -0.6 0.1-1.3 0.1-2 0.1 -0.9 0-1.6 0-2.1-0.2 -0.5-0.1-0.9-0.3-1.3-0.5 -0.6-0.4-0.8-1.1-0.8-2.1 0-0.2 0-0.4 0-0.6h1.5c0 0.2 0 0.4 0 0.5 0 0.3 0.1 0.6 0.2 0.8 0.1 0.3 0.2 0.4 0.4 0.5 0.3 0.2 1 0.3 2.1 0.3 1.3 0 2.1-0.1 2.4-0.4 0.3-0.2 0.5-0.7 0.5-1.4 0-0.6-0.1-1-0.3-1.3 -0.2-0.2-0.6-0.3-1.2-0.3 -1.9 0-3.1-0.1-3.9-0.3 -0.7-0.2-1.1-0.5-1.4-1 -0.2-0.4-0.3-0.9-0.3-1.6 0-1.1 0.2-1.8 0.7-2.2 0.4-0.3 1-0.5 1.6-0.6 0.6-0.1 1.2-0.1 1.8-0.1 0.8 0 1.5 0 2 0.1s0.9 0.3 1.2 0.5c0.5 0.3 0.8 1 0.8 1.9C318.8 90 318.8 90.1 318.8 90.2z" class="a"/><path d="M325.4 87.4c0.9 0 1.5 0.1 2 0.2 0.5 0.1 0.9 0.3 1.2 0.6 0.5 0.4 0.8 1.1 1 1.9 0.1 0.8 0.2 1.6 0.2 2.6 0 1.6-0.1 2.7-0.4 3.4 -0.2 0.5-0.5 0.9-0.8 1.1 -0.3 0.3-0.8 0.4-1.4 0.5 -0.4 0.1-1.1 0.1-1.9 0.1 -0.9 0-1.6-0.1-2.1-0.2 -0.5-0.1-0.9-0.3-1.2-0.6 -0.5-0.4-0.8-1.1-1-1.9 -0.1-0.7-0.2-1.6-0.2-2.5 0-1.7 0.1-2.8 0.4-3.5 0.4-0.9 1.1-1.5 2.2-1.7C323.9 87.5 324.5 87.4 325.4 87.4zM325.3 88.7c-1.2 0-1.9 0.1-2.2 0.4 -0.3 0.3-0.5 0.7-0.6 1.4 -0.1 0.6-0.1 1.3-0.1 2 0 1.4 0.1 2.4 0.2 2.8 0.1 0.5 0.3 0.8 0.6 0.9 0.4 0.2 1.1 0.3 2.1 0.3 1.2 0 1.9-0.1 2.3-0.4 0.3-0.3 0.5-0.7 0.6-1.4 0.1-0.6 0.1-1.3 0.1-2.1 0-1.3-0.1-2.2-0.2-2.7 -0.1-0.5-0.3-0.8-0.6-0.9C327.1 88.8 326.3 88.7 325.3 88.7z" class="a"/><path d="M333.6 83.3v14.4h-1.5V83.3H333.6z" class="a"/><path d="M344.4 87.6v10.1h-1.5l0.1-1.3 0 0c-0.5 1-1.6 1.5-3.4 1.5 -1.6 0-2.6-0.5-3.1-1.5 -0.2-0.5-0.3-1.1-0.3-2v-6.7h1.5v6.7c0 0.7 0.1 1.2 0.3 1.5 0.2 0.3 0.5 0.5 0.9 0.6 0.3 0.1 0.6 0.1 1.1 0.1 1 0 1.6-0.1 2-0.4 0.5-0.3 0.8-0.9 0.9-1.7 0-0.3 0.1-0.7 0.1-1.1v-5.8H344.4z" class="a"/><path d="M352.5 87.6v1.2h-3.9v6.2c0 0.5 0 0.8 0.1 1s0.3 0.4 0.5 0.5c0.2 0.1 0.4 0.1 0.8 0.1 0.6 0 1-0.1 1.2-0.4 0.2-0.3 0.2-0.8 0.2-1.5 0-0.1 0-0.3 0-0.5h1.4c0 0.3 0 0.6 0 0.8 0 0.9-0.2 1.5-0.5 2 -0.4 0.6-1.2 0.9-2.3 0.9 -1 0-1.7-0.2-2.1-0.5 -0.4-0.3-0.7-0.8-0.7-1.5 0-0.2 0-0.4 0-0.8v-6.2h-1.4v-1.2h1.4v-2.4h1.5v2.4H352.5z" class="a"/><path d="M355.6 83.3v1.7h-1.5v-1.7H355.6zM355.6 87.6v10.1h-1.5V87.6H355.6z" class="a"/><path d="M362.4 87.4c0.9 0 1.5 0.1 2 0.2 0.5 0.1 0.9 0.3 1.2 0.6 0.5 0.4 0.8 1.1 1 1.9 0.1 0.8 0.2 1.6 0.2 2.6 0 1.6-0.1 2.7-0.4 3.4 -0.2 0.5-0.5 0.9-0.8 1.1 -0.3 0.3-0.8 0.4-1.4 0.5 -0.4 0.1-1.1 0.1-1.9 0.1 -0.9 0-1.6-0.1-2.1-0.2 -0.5-0.1-0.9-0.3-1.2-0.6 -0.5-0.4-0.8-1.1-1-1.9 -0.1-0.7-0.2-1.6-0.2-2.5 0-1.7 0.1-2.8 0.4-3.5 0.4-0.9 1.1-1.5 2.2-1.7C360.9 87.5 361.5 87.4 362.4 87.4zM362.3 88.7c-1.2 0-1.9 0.1-2.2 0.4 -0.3 0.3-0.5 0.7-0.6 1.4 -0.1 0.6-0.1 1.3-0.1 2 0 1.4 0.1 2.4 0.2 2.8 0.1 0.5 0.3 0.8 0.6 0.9 0.4 0.2 1.1 0.3 2.1 0.3 1.2 0 1.9-0.1 2.3-0.4 0.3-0.3 0.5-0.7 0.6-1.4 0.1-0.6 0.1-1.3 0.1-2.1 0-1.3-0.1-2.2-0.2-2.7 -0.1-0.5-0.3-0.8-0.6-0.9C364.1 88.8 363.4 88.7 362.3 88.7z" class="a"/><path d="M369.1 87.6h1.5l0 1.4 0 0c0.2-0.4 0.3-0.6 0.6-0.8 0.6-0.5 1.5-0.7 2.8-0.7 1.7 0 2.8 0.4 3.3 1.3 0.2 0.4 0.3 1.2 0.3 2.4v6.6h-1.5v-6.4c0-0.9-0.1-1.5-0.2-1.8 -0.3-0.5-1-0.8-2.1-0.8 -0.8 0-1.5 0.1-1.9 0.3 -0.6 0.3-1 0.9-1.1 1.7 0 0.3-0.1 0.6-0.1 0.9v6.1h-1.5V87.6z" class="a"/><path d="M388 90.2h-1.5c0-0.5-0.1-0.9-0.2-1.1 -0.1-0.2-0.5-0.4-1-0.4 -0.3 0-0.7 0-1.4 0 -0.7 0-1.2 0-1.5 0.1 -0.3 0-0.6 0.1-0.7 0.3 -0.2 0.2-0.4 0.6-0.4 1.2 0 0.6 0.1 1 0.2 1.2 0.1 0.3 0.4 0.4 0.9 0.5 0.1 0 0.6 0 1.6 0.1 1.3 0.1 2.1 0.1 2.3 0.1 0.8 0.1 1.4 0.5 1.7 1.1 0.2 0.4 0.3 1 0.3 1.7 0 1.1-0.3 1.8-0.8 2.3 -0.4 0.3-0.9 0.5-1.5 0.6 -0.6 0.1-1.3 0.1-2 0.1 -0.9 0-1.6 0-2.1-0.2s-0.9-0.3-1.3-0.5c-0.6-0.4-0.8-1.1-0.8-2.1 0-0.2 0-0.4 0-0.6h1.5c0 0.2 0 0.4 0 0.5 0 0.3 0.1 0.6 0.2 0.8 0.1 0.3 0.2 0.4 0.4 0.5 0.3 0.2 1 0.3 2.1 0.3 1.3 0 2.1-0.1 2.4-0.4 0.3-0.2 0.5-0.7 0.5-1.4 0-0.6-0.1-1-0.3-1.3 -0.2-0.2-0.6-0.3-1.2-0.3 -1.9 0-3.1-0.1-3.9-0.3 -0.7-0.2-1.1-0.5-1.4-1 -0.2-0.4-0.3-0.9-0.3-1.6 0-1.1 0.2-1.8 0.7-2.2 0.4-0.3 1-0.5 1.6-0.6 0.6-0.1 1.2-0.1 1.8-0.1 0.8 0 1.5 0 2 0.1 0.5 0.1 0.9 0.3 1.2 0.5 0.5 0.3 0.8 1 0.8 1.9C388 90 388 90.1 388 90.2z" class="a"/><path d="M204.3 28.7l-12.9 45.2h-16.8l-13.5-45.2h11.4l5.9 20.9c0.9 3.4 2.1 7.6 3.3 12.6l1.1 4.2h0.2l1-4.2c1.3-5.4 2.3-9.6 3.1-12.6l5.5-20.9H204.3z" class="b"/><path d="M267.4 41h-10.6c-0.2-2-0.6-3.3-1.1-3.9 -0.6-0.8-1.7-1.2-3.3-1.4 -0.9-0.1-2.4-0.1-4.6-0.1 -4.1 0-6.6 0.3-7.6 1 -1 0.7-1.5 2.2-1.5 4.4 0 2.7 0.9 4.3 2.6 4.8 0.8 0.2 3.8 0.5 9.2 0.7 5.2 0.3 8.6 0.6 10.2 0.9 3.4 0.7 5.8 2.4 7.1 4.9 1 1.9 1.6 4.4 1.6 7.5 0 5-1.4 8.7-4.2 11 -1.9 1.5-4.1 2.5-6.8 2.9 -3 0.5-6.5 0.7-10.4 0.7 -6.1 0-10.4-0.5-13.1-1.5 -3.4-1.2-5.5-3.3-6.4-6.3 -0.5-1.6-0.8-3.9-0.8-7h11.3c0 0.7 0 1.2 0 1.6 0 2.3 0.6 3.9 1.9 4.7 1.1 0.7 3.7 1 7.6 1 4.3 0 7.1-0.5 8.4-1.4 1-0.8 1.6-2.2 1.6-4.5 0-2.2-0.4-3.7-1.3-4.6 -0.8-0.8-2.5-1.2-5.2-1.2 -8-0.1-13.4-0.6-16.4-1.4 -3-0.9-5.1-2.5-6.3-4.8 -0.9-1.7-1.3-4.2-1.3-7.5 0-5.4 1.4-8.9 4.1-10.8 1.8-1.2 4.2-2 7-2.3 2.9-0.3 6-0.5 9.4-0.5 5.9 0 10 0.5 12.5 1.4 4 1.5 6.2 4.5 6.5 8.9C267.4 38.7 267.4 39.7 267.4 41z" class="b"/><path d="M318.9 28.2c5.2 0 9 0.4 11.4 1.2 4.2 1.4 6.9 4.4 8.1 9.1 0.7 2.6 1 6.5 1 11.7 0 6.5-0.4 11.3-1.3 14.3 -0.7 2.6-1.9 4.6-3.4 6 -1.5 1.4-3.6 2.4-6.2 3.1 -2.3 0.6-5.7 0.9-10.3 0.9 -4.5 0-8-0.3-10.5-0.9 -2.5-0.6-4.5-1.6-6-3 -2.4-2.2-3.8-5.5-4.3-9.8 -0.3-2.9-0.4-6.2-0.4-9.9 0-6.7 0.5-11.4 1.5-14 1.7-4.3 5-7 9.9-8C310.5 28.4 314 28.2 318.9 28.2zM318 36.7c-3.8 0-6.2 0.5-7.4 1.5 -1.2 1-1.9 2.7-2.2 5.1 -0.3 2.2-0.4 4.8-0.4 7.7 0 4 0.2 7 0.5 8.9 0.3 1.9 0.9 3.3 1.7 4.2 1.2 1.3 3.8 1.9 7.9 1.9 4.2 0 6.9-0.7 8.1-2.2 1-1.3 1.6-3.3 1.8-6.2 0.2-2.4 0.2-4.8 0.2-7.2 0-3.5-0.2-6.2-0.5-8 -0.4-1.8-1-3.1-1.9-3.9C324.7 37.2 322.1 36.7 318 36.7z" class="b"/><path d="M348.1 28.5h11l-0.4 7.6 0.2 0c2.1-5.5 6.7-8.2 14-8.2 7.3 0 12.1 2 14.4 5.9 1 1.8 1.6 4.9 1.6 9.1v30.9h-11V46.6c0-3.4-0.3-5.6-0.8-6.8 -0.9-2-3.3-2.9-7.1-2.9 -4.6 0-7.7 1.3-9.3 4 -0.9 1.5-1.3 3.5-1.3 6.2v26.9h-11.1V28.5z" class="b"/><rect x="208.7" y="28.7" width="10.7" height="45.2" class="b"/><circle cx="214.3" cy="14.3" r="7.5" class="a"/><rect x="277.1" y="28.7" width="10.7" height="45.2" class="b"/><circle cx="282" cy="14.4" r="7.5" class="a"/><rect x="145.9" y="1.9" width="1.8" height="80.1" class="a"/><path d="M57.8 11.1v9.5H23.9l-0.1 15.8h0.2c1.4-1.9 2.9-3.1 4.5-3.7 2.4-0.9 6-1.3 10.7-1.3 4.3 0 7.8 0.4 10.4 1.1 2.6 0.8 4.8 2 6.5 3.8 2.1 2.2 3.4 5.1 3.9 8.6 0.4 2.6 0.6 5.5 0.6 8.8 0 4.4-0.3 7.8-1 10.4 -0.6 2.6-1.7 4.8-3.2 6.5 -2 2.2-4.6 3.7-7.9 4.4 -3.8 0.8-8.2 1.2-13.3 1.2 -6.5 0-11.2-0.5-14.1-1.5 -5.5-1.9-8.6-5.7-9.6-11.5 -0.2-1.4-0.3-3.4-0.4-6.1h12c0.2 3.1 0.6 5.2 1.4 6.3 0.9 1.4 2.7 2.2 5.4 2.5 0.9 0.1 2.7 0.1 5.3 0.1 3.5 0 6.2-0.2 7.9-0.6 1.8-0.4 3.1-1.2 3.8-2.2 0.8-1 1.2-2.8 1.3-5.4 0-1.6 0-3.2 0-5 0-5-0.7-8.2-2.2-9.6 -1.4-1.4-4.7-2.1-9.8-2.1 -5.5 0-9.1 0.4-10.6 1.2 -1.1 0.6-1.8 1.7-2.2 3.4H12.5v-34.6H57.8z" class="c"/><path d="M71.8 75.7V11.1h31.9c4.4 0 8.1 0.4 11 1.3 2.9 0.9 5.3 2.3 7.2 4.2 3.4 3.5 5.3 8.5 5.9 15 0.2 1.6 0.2 3.8 0.2 6.5 0 8.1-0.1 13.7-0.4 16.8 -0.3 4.8-1.3 8.6-2.8 11.5 -1.5 2.9-3.8 5.1-6.8 6.7 -3.4 1.8-8.1 2.7-14 2.7H71.8zM84.2 65.1h17.5c5.6 0 9.3-1.3 11.1-3.9 1.3-1.9 2.1-4.7 2.4-8.5 0.2-2.3 0.3-5.5 0.3-9.4 0-5.5-0.2-9.5-0.5-12.3 -0.5-4.3-2.4-7.1-5.7-8.2 -1.7-0.6-4-0.9-6.9-0.9H84.2V65.1z" class="c"/></svg>