<?xml version="1.0" encoding="UTF-8"?>
<svg width="218.33pt" height="52.809pt" version="1.1" viewBox="0 0 218.33 52.809" xmlns="http://www.w3.org/2000/svg" xmlns:xlink="http://www.w3.org/1999/xlink">
<defs>
<symbol id="d" overflow="visible">
<path d="m7.4375 0v-12.781l10.797 12.781h5.2344v-0.8125l-10.562-12.234 10.469-11v-0.76562h-5l-10.938 11.875v-11.875h-4.75v24.812z"/>
</symbol>
<symbol id="a" overflow="visible">
<path d="m0.76562-0.875v0.875h4.6406l2.6094-6.9062h10.266l2.7031 6.9062h4.7344v-0.875l-9.4219-23.938h-6.0312zm11.812-17.938 0.4375-1.375h0.15625l0.4375 1.375 3.2188 8.25h-7.4062z"/>
</symbol>
<symbol id="c" overflow="visible">
<path d="m7.4375 0v-9.7188h2.3125c2.5938 0 4.0312 1.2344 5.0781 3.5781l2.6719 6.1406h4.7344v-0.90625l-2.5156-6.0312c-0.8125-1.875-1.9062-3.2188-3.2812-3.7656 3.25-1.0938 5.3906-3.4062 5.3906-6.8281 0-4-3.1875-7.2812-8.1406-7.2812h-11v24.812zm4.8281-20.953c2.8906 0 4.4375 1.6094 4.4375 3.7812 0 2.2812-1.7812 3.6875-4.3281 3.6875h-4.9375v-7.4688z"/>
</symbol>
<symbol id="b" overflow="visible">
<path d="m13.812 0v-20.828h8.9844v-3.9844h-22.188v3.9844h8.4375v20.828z"/>
</symbol>
</defs>
<g>
<path d="m58.938 8.8438h-38.207c-2.5156 0-4.5664 1.9727-4.5664 4.3945v26.332c0 2.4219 2.0508 4.3906 4.5664 4.3906h38.207c2.5156 0 4.5625-1.9688 4.5625-4.3906v-26.332c0-2.4219-2.0469-4.3945-4.5625-4.3945" fill="#fff"/>
<path d="m44.762 32.008h-3.6445v-11.16h3.7773s5.3164-0.39844 5.3164 5.4336-5.4492 5.7266-5.4492 5.7266m1.8281-17.949h-12.277c-0.55859 0-1.0156 0.45703-1.0156 1.0156v22.645c0 0.55859 0.45703 1.0156 1.0156 1.0156h11.574c11.504 0 12.422-9.0312 12.422-11.523v-1.9102c-0.39844-9.8867-8.457-11.242-11.719-11.242" fill="#0f2e5e"/>
<path d="m30.461 19.809v-4.7344c0-0.55859-0.45703-1.0156-1.0156-1.0156h-5.793c-0.55859 0-1.0156 0.45703-1.0156 1.0156v7.8633z" fill="#ef3c1e"/>
<path d="m22.637 25.801v11.918c0 0.55859 0.45703 1.0156 1.0156 1.0156h5.793c0.55859 0 1.0156-0.45703 1.0156-1.0156v-15.047z" fill="#0f2e5e"/>
<path d="m58.938 8.8438h-38.207c-2.5156 0-4.5664 1.9727-4.5664 4.3945v26.332c0 2.4219 2.0508 4.3906 4.5664 4.3906h38.207c2.5156 0 4.5625-1.9688 4.5625-4.3906v-26.332c0-2.4219-2.0469-4.3945-4.5625-4.3945m0 1.3086c1.793 0 3.2578 1.3828 3.2578 3.0859v26.332c0 1.7031-1.4648 3.0859-3.2578 3.0859h-38.207c-1.7969 0-3.2578-1.3828-3.2578-3.0859v-26.332c0-1.7031 1.4609-3.0859 3.2578-3.0859h38.207" fill="#0f2e5e"/>
<g fill="#0f2e5e">
<use x="69.333" y="38.7053" xlink:href="#d"/>
</g>
<g fill="#0f2e5e">
<use x="94.016894" y="38.7053" xlink:href="#a"/>
</g>
<g fill="#0f2e5e">
<use x="120.91429" y="38.7053" xlink:href="#a"/>
<use x="147.241542" y="38.7053" xlink:href="#c"/>
</g>
<g fill="#0f2e5e">
<use x="171.019913" y="38.7053" xlink:href="#b"/>
</g>
</g>
</svg>
