<?xml version="1.0" encoding="UTF-8"?>
<svg width="224.83pt" height="52.809pt" version="1.1" viewBox="0 0 224.83 52.809" xmlns="http://www.w3.org/2000/svg" xmlns:xlink="http://www.w3.org/1999/xlink">
<defs>
<symbol id="e" overflow="visible">
<path d="m2.6719 0h4.625v-18.188l1.4688 3.3594 7.0938 14.828h4.125l7-14.859 1.5312-3.5938v18.453h4.625v-24.656h-6.0938l-8.9531 19.359-9.4375-19.359h-5.9844z"/>
</symbol>
<symbol id="d" overflow="visible">
<path d="m13.719 0.35938c7.2344 0 12.594-5.6875 12.594-12.719 0-7.0625-5.3281-12.719-12.594-12.719-7.1562 0-12.594 5.6562-12.594 12.719 0 7.0312 5.4375 12.719 12.594 12.719zm-0.0625-4.3906c-4.4219 0-7.6562-3.8281-7.6562-8.3281 0-4.5312 3.1875-8.3594 7.6562-8.3594 4.5312 0 7.8281 3.8281 7.8281 8.3594 0 4.5-3.2656 8.3281-7.8281 8.3281z"/>
</symbol>
<symbol id="c" overflow="visible">
<path d="m12.859 0c5.9219 0 9.3594-3 9.3594-7.2031 0-3.3906-3.0625-5.0156-4.5312-5.125v-0.29688c1.4688 0 4.3281-1.4062 4.3281-5.0625 0-3.8594-3.4219-6.9688-8.9844-6.9688h-10.359v24.656zm0.23438-10.5c2.7344 0 4.2031 1.4688 4.2031 3.2031 0 1.8594-1.2031 3.4688-4.5781 3.4688h-5.3281v-6.6719zm-0.03125-10.328c2.5625 0 4 1.6406 4 3.3125 0 1.6875-1.4375 3.1875-4 3.1875h-5.6719v-6.5z"/>
</symbol>
<symbol id="a" overflow="visible">
<path d="m7.3906 0v-24.656h-4.7188v24.656z"/>
</symbol>
<symbol id="b" overflow="visible">
<path d="m2.6719 0h17.078v-4h-12.359v-20.656h-4.7188z"/>
</symbol>
</defs>
<g>
<path d="m195.26 8.8477h-38.207c-2.5156 0-4.5625 1.9688-4.5625 4.3906v26.332c0 2.4219 2.0469 4.3906 4.5625 4.3906h38.207c2.5156 0 4.5625-1.9688 4.5625-4.3906v-26.332c0-2.4219-2.0469-4.3906-4.5625-4.3906" fill="#fff"/>
<path d="m181.09 32.008h-3.6445v-11.16h3.7773s5.3125-0.39844 5.3125 5.4336-5.4453 5.7266-5.4453 5.7266m1.8281-17.949h-12.277c-0.55859 0-1.0156 0.45703-1.0156 1.0156v22.645c0 0.55859 0.45703 1.0156 1.0156 1.0156h11.57c11.508 0 12.426-9.0352 12.426-11.523v-1.9102c-0.39844-9.8906-8.457-11.242-11.719-11.242" fill="#0f2e5e"/>
<path d="m166.78 19.809v-4.7344c0-0.55859-0.45703-1.0156-1.0117-1.0156h-5.7969c-0.55469 0-1.0117 0.45703-1.0117 1.0156v7.8633z" fill="#ef3c1e"/>
<path d="m158.96 25.801v11.918c0 0.55859 0.45703 1.0156 1.0156 1.0156h5.793c0.55469 0 1.0117-0.45703 1.0117-1.0156v-15.047z" fill="#0f2e5e"/>
<path d="m195.26 8.8477h-38.207c-2.5156 0-4.5625 1.9688-4.5625 4.3906v26.332c0 2.4219 2.0469 4.3906 4.5625 4.3906h38.207c2.5156 0 4.5625-1.9688 4.5625-4.3906v-26.332c0-2.4219-2.0469-4.3906-4.5625-4.3906m0 1.3047c1.7969 0 3.2578 1.3828 3.2578 3.0859v26.332c0 1.7031-1.4609 3.0859-3.2578 3.0859h-38.207c-1.7969 0-3.2578-1.3828-3.2578-3.0859v-26.332c0-1.7031 1.4609-3.0859 3.2578-3.0859h38.207" fill="#0f2e5e"/>
<g fill="#0f2e5e">
<use x="13.4854" y="38.7248" xlink:href="#e"/>
<use x="49.688805" y="38.7248" xlink:href="#d"/>
<use x="77.532453" y="38.7248" xlink:href="#c"/>
</g>
<g fill="#0f2e5e">
<use x="102.345274" y="38.7248" xlink:href="#a"/>
</g>
<g fill="#0f2e5e">
<use x="113.306213" y="38.7248" xlink:href="#a"/>
</g>
<g fill="#0f2e5e">
<use x="124.260491" y="38.7248" xlink:href="#b"/>
</g>
</g>
</svg>
